<?xml version="1.0" encoding="utf-8"?>
<!-- Generator: Adobe Illustrator 21.0.0, SVG Export Plug-In . SVG Version: 6.00 Build 0)  -->
<svg version="1.1" id="Logo" xmlns="http://www.w3.org/2000/svg" xmlns:xlink="http://www.w3.org/1999/xlink" x="0px" y="0px"
	 viewBox="0 0 201 86" style="enable-background:new 0 0 201 86;" xml:space="preserve">
<style type="text/css">
	.st0{fill:#FFFFFF;}
</style>
<g>
	<path class="st0" d="M90.1,29.1c1.1,1.9,2.4,3.6,3.7,5.1c1.7-1.1,3.3-2.4,5-3.9c-1.2-1.9-2.5-3.7-3.7-5.3
		C93.5,26.2,91.8,27.6,90.1,29.1L90.1,29.1z"/>
	<polygon class="st0" points="92.7,37.8 80.7,22.7 70.5,24.4 88.2,46.8 116.1,23.9 132.4,9.3 92.7,37.8 	"/>
	<polygon class="st0" points="106.7,64.5 117,62.8 99.3,40.4 68.7,65.2 94.7,49.4 106.7,64.5 	"/>
	<path class="st0" d="M69.3,71l-1.1,3.7L67,71h-1.1l1.5,4.7h1.5l1.5-4.7H69.3z M76.5,71.9V71h-3.3v4.7h3.3v-0.9h-2.2v-1h2v-0.9h-2
		v-0.9H76.5z M54.3,71v4.7h1.1V71H54.3z M62,71v3.3L60.2,71h-1.3v4.7h1v-3.3l1.8,3.3h1.4V71H62z M105.9,71v3.3L104,71h-1.3v4.7h1
		v-3.3l1.8,3.3h1.4V71H105.9z M113.5,71v3.3l-1.8-3.3h-1.3v4.7h1v-3.3l1.8,3.3h1.4V71H113.5z M82.9,71v3.3L81.1,71h-1.3v4.7h1v-3.3
		l1.8,3.3h1.3V71H82.9z M86.9,71v0.9h1.4v3.7h1.1v-3.7h1.4V71H86.9z M98.1,71v4.7h1.1V71H98.1z M93.9,68.6v8.9h0.7v-8.9H93.9z
		 M121.6,71.6c-0.1-0.2-0.3-0.4-0.6-0.5c-0.3-0.2-0.6-0.3-1.1-0.3c-0.5,0-0.9,0.1-1.2,0.3c-0.3,0.1-0.5,0.3-0.6,0.5
		c-0.2,0.3-0.2,0.5-0.2,0.8v1.9c0,0.3,0,0.5,0.2,0.7c0.1,0.2,0.3,0.4,0.6,0.5c0.3,0.1,0.7,0.2,1.2,0.2c0.5,0,0.8-0.1,1.1-0.2
		c0.3-0.2,0.5-0.3,0.6-0.5c0.2-0.2,0.2-0.4,0.2-0.7v-1.9C121.8,72.1,121.8,71.9,121.6,71.6z M120.7,74.2c0.1,0.2,0,0.4-0.1,0.5
		c-0.2,0.1-0.4,0.2-0.7,0.2c-0.3,0-0.6-0.1-0.7-0.2c-0.1-0.1-0.2-0.3-0.2-0.5v-1.6c0-0.2,0.1-0.4,0.2-0.5c0.2-0.1,0.4-0.1,0.7-0.1
		c0.3,0,0.5,0,0.7,0.1c0.1,0.1,0.2,0.3,0.1,0.5V74.2z M127.9,71l-1.1,3.7l-1.2-3.7h-1.1l1.5,4.7h1.5L129,71H127.9z M134.4,71H133
		l-1.6,4.7h1.1l0.3-0.8h1.9l0.3,0.8h1.1L134.4,71z M133,74l0.7-2.1l0.6,2.1H133z M138.5,71v0.9h1.4v3.7h1.1v-3.7h1.4V71H138.5z
		 M148.7,71.9V71h-3.2v4.7h3.2v-0.9h-2.1v-1h2v-0.9h-2v-0.9H148.7z M39.5,52.3V26.2h-7.7v32.6h17v-6.4H39.5z M29.3,31
		c-0.6-1.4-1.5-2.5-2.7-3.3c-1-0.6-2-0.9-3.4-1.2c-1.3-0.3-3.4-0.4-6.1-0.4H9.5v32.6h7.7V46.4h2.7c3.4,0,5.9-0.8,7.7-2.6
		c1.7-1.7,2.6-4.2,2.6-7.6C30.2,34.3,29.9,32.5,29.3,31z M21.5,39.3c-0.7,0.7-1.8,1-3.4,1h-0.6c-0.2,0-0.3,0-0.4,0v-8.2h0.6
		c1.7,0,2.9,0.4,3.6,0.9c0.7,0.6,1.1,1.5,1.1,2.8C22.5,37.4,22.2,38.6,21.5,39.3z M160.8,26.2v32.6h7.7V26.2H160.8z M192.3,46.3
		h-7.5v1.4c0,2.3-0.2,3.8-0.7,4.7c-0.5,0.8-1.2,1.2-2.4,1.2c-1.2,0-2.1-0.5-2.5-1.6c-0.5-1.2-0.7-4.3-0.7-9.4v-0.6
		c0-4.7,0.2-7.6,0.7-8.7c0.5-1.1,1.3-1.7,2.5-1.7c1.1,0,1.9,0.4,2.4,1.4c0.5,0.9,0.7,2.4,0.7,4.7l7.5,0v-0.3c0-4-0.9-7-2.7-9
		c-1.8-2-4.5-3-8.1-3c-2.1,0-3.9,0.4-5.4,1.1c-1.5,0.7-2.7,1.8-3.6,3.2c-0.7,1-1.1,2.4-1.4,4.2c-0.3,1.8-0.4,4.7-0.4,8.7
		c0,4,0.1,6.8,0.4,8.7c0.3,1.8,0.7,3.2,1.4,4.2c0.9,1.5,2.1,2.5,3.6,3.2c0.1,0,0.1,0,0.1,0c1.5,0.7,3.3,1,5.4,1c2.2,0,4-0.3,5.5-1
		c1-0.5,1.9-1.1,2.6-1.8c1.8-2,2.6-5,2.6-8.9v-1C192.4,46.8,192.4,46.5,192.3,46.3z M151.1,26.2v5.2c0,1.7,0,3.8,0.2,6.3
		c0.1,2.5,0.3,5.4,0.6,8.8l-6.4-20.2h-8v32.6h6.9v-5.3c0-2.4-0.1-4.9-0.2-7.4c-0.1-2.6-0.4-5.2-0.6-7.9l6.3,20.6h8.1V26.2H151.1z
		 M134.9,34c-0.3-1.8-0.8-3.3-1.4-4.3c-0.9-1.5-2.2-2.5-3.7-3.2c-1.5-0.7-3.3-1.1-5.4-1.1c-2.2,0-4,0.3-5.5,1.1
		c-1.5,0.7-2.7,1.7-3.7,3.2c-0.7,1-1.1,2.4-1.4,4.2c-0.3,1.8-0.4,4.7-0.4,8.7c0,4,0.1,6.8,0.4,8.7c0.3,1.8,0.8,3.2,1.4,4.2
		c0.9,1.5,2.2,2.5,3.7,3.2c0,0,0,0,0,0c1.5,0.7,3.3,1,5.5,1c2.1,0,3.9-0.3,5.4-1c0.1,0,0.1,0,0.1,0c1.5-0.7,2.7-1.7,3.7-3.2
		c0.6-1,1.1-2.5,1.4-4.3c0.3-1.8,0.4-4.7,0.4-8.6C135.3,38.6,135.2,35.8,134.9,34z M127.4,45.6c0,3.6-0.2,5.8-0.6,6.7
		c-0.5,0.9-1.3,1.3-2.5,1.3c-1.2,0-2-0.4-2.5-1.3c-0.5-0.9-0.7-3.2-0.7-6.7v-5.9c0-3.6,0.2-5.9,0.7-6.7c0.5-0.9,1.2-1.3,2.4-1.3
		c1.2,0,2,0.4,2.5,1.3c0.4,0.8,0.6,3.1,0.6,6.7V45.6z"/>
	<path class="st0" d="M66.8,26.2h-9.1l-7.1,32.6h7.8l0.9-6h6l0.9,6h7.6L66.8,26.2z M60.1,46.8l2.2-14.3l2.2,14.3H60.1z"/>
</g>
</svg>
