<?xml version="1.0" encoding="utf-8"?>
<!-- Generator: Adobe Illustrator 21.0.0, SVG Export Plug-In . SVG Version: 6.00 Build 0)  -->
<svg version="1.1" id="Layer_2" xmlns="http://www.w3.org/2000/svg" xmlns:xlink="http://www.w3.org/1999/xlink" x="0px" y="0px"
	 viewBox="0 0 224.9 83.8" style="enable-background:new 0 0 224.9 83.8;" xml:space="preserve">
<style type="text/css">
	.st0{fill:#1BA3DD;}
	.st1{fill:#2A333A;}
	.st2{fill:#999999;}
</style>
<g>
	<polygon class="st0" points="151.2,0 131.1,17.9 96.8,46.1 75,18.5 87.6,16.4 102.4,35 	"/>
	<g>
		<path class="st1" d="M152.4,25c-1.2-1.8-2.7-3.1-4.5-4c-1.8-0.9-4.1-1.3-6.7-1.3c-2.7,0-4.9,0.4-6.8,1.3c-1.8,0.9-3.4,2.1-4.5,4
			c-0.9,1.2-1.4,3-1.8,5.2c-0.3,2.3-0.5,5.8-0.5,10.7s0.2,8.4,0.5,10.7c0.4,2.2,0.9,4,1.8,5.2c1.2,1.8,2.7,3.1,4.5,4
			c0.1,0.1,0.1,0.1,0.1,0.1c1.8,0.9,4.1,1.3,6.7,1.3c2.6,0,4.8-0.4,6.6-1.3c0.1,0,0.1,0,0.1-0.1c1.8-0.9,3.4-2.1,4.5-4
			c0.8-1.2,1.4-3,1.8-5.2c0.4-2.3,0.5-5.8,0.5-10.6c0-4.9-0.1-8.4-0.5-10.6C153.8,28.1,153.2,26.3,152.4,25z M145.1,44.5
			c0,4.4-0.2,7.1-0.8,8.2c-0.6,1.1-1.6,1.6-3,1.6c-1.5,0-2.5-0.5-3-1.6c-0.6-1.2-0.9-3.9-0.9-8.2v-7.3c0-4.4,0.3-7.2,0.9-8.2
			c0.5-1.1,1.5-1.6,3-1.6c1.5,0,2.5,0.5,3.1,1.6c0.5,1,0.8,3.8,0.8,8.2V44.5z"/>
		<path class="st1" d="M174.2,27.1c0,2.1,0,4.7,0.2,7.7c0.1,3,0.4,6.6,0.7,10.8l-7.9-24.9h-9.8v40h8.5v-6.5c0-3-0.1-6-0.2-9.1
			c-0.2-3.2-0.5-6.4-0.8-9.7l7.7,25.3h9.9v-40h-8.3V27.1z"/>
		<path class="st1" d="M224.8,45.5h-9.3v1.8c0,2.8-0.2,4.7-0.9,5.7c-0.6,1-1.5,1.5-3,1.5c-1.5,0-2.6-0.7-3.1-2
			c-0.6-1.5-0.9-5.3-0.9-11.5v-0.8c0-5.8,0.2-9.3,0.9-10.7c0.5-1.3,1.6-2.1,3.1-2.1c1.4,0,2.4,0.5,3,1.7c0.6,1.1,0.9,3,0.9,5.7
			l9.2,0.1v-0.4c0-4.9-1.1-8.6-3.3-11c-2.3-2.5-5.5-3.7-9.9-3.7c-2.6,0-4.8,0.5-6.6,1.3c-1.8,0.9-3.4,2.3-4.4,4
			c-0.9,1.2-1.4,3-1.8,5.2c-0.4,2.3-0.5,5.8-0.5,10.7s0.1,8.4,0.5,10.7c0.4,2.2,0.9,4,1.8,5.2c1.1,1.8,2.6,3.1,4.4,4
			c0.1,0.1,0.1,0.1,0.1,0.1c1.8,0.9,4.1,1.3,6.6,1.3c2.7,0,4.9-0.4,6.8-1.3c1.2-0.6,2.3-1.3,3.2-2.3c2.2-2.4,3.2-6.1,3.2-11
			C224.9,46.9,224.9,45.7,224.8,45.5z"/>
		<rect x="186.1" y="20.7" class="st1" width="9.4" height="40"/>
		<path class="st1" d="M70.6,20.7H59.3l-8.8,40h9.6l1.1-7.4h7.4l1.2,7.4h9.3L70.6,20.7z M62.2,46.1L65,28.5l2.7,17.6H62.2z"/>
		<path class="st1" d="M109.9,25.8c-1.5-2.4-3-4.5-4.6-6.5c-2,1.5-4,3.2-6.1,4.9c1.4,2.3,2.9,4.4,4.6,6.3
			C105.8,29.1,107.8,27.5,109.9,25.8z"/>
		<path class="st1" d="M21,22.7c-1.2-0.7-2.5-1.2-4.1-1.5c-1.6-0.3-4.1-0.5-7.6-0.5H0v40h9.5V45.6h3.4c4.1,0,7.3-1,9.4-3.2
			c2.1-2.1,3.2-5.2,3.2-9.3c0-2.4-0.4-4.6-1.2-6.4C23.6,24.9,22.5,23.6,21,22.7z M14.9,36.9c-0.9,0.9-2.2,1.3-4.1,1.3
			c-0.3,0-1.1,0-1.2-0.1V28h0.8c2.1,0,3.6,0.4,4.4,1.2c0.9,0.7,1.3,1.8,1.3,3.5C16.1,34.5,15.7,36,14.9,36.9z"/>
		<polygon class="st1" points="36.9,20.7 27.5,20.7 27.5,60.7 48.3,60.7 48.3,52.9 36.9,52.9 		"/>
		<polygon class="st1" points="72.9,68.7 104.9,49.2 119.6,67.8 132.3,65.7 110.4,38.1 		"/>
	</g>
	<polyline points="171.2,77 171.2,75.8 167.2,75.8 167.2,81.5 171.2,81.5 171.2,80.4 168.5,80.4 168.5,79.1 171,79.1 171,78.1 
		168.5,78.1 168.5,77 171.2,77 	"/>
	<polyline points="160.4,77 160.4,81.5 161.8,81.5 161.8,77 163.5,77 163.5,75.8 158.7,75.8 158.7,77 160.4,77 	"/>
	<polyline points="149.9,81.5 151.2,81.5 151.6,80.5 153.9,80.5 153.5,79.5 151.9,79.5 152.8,76.9 153.5,79.5 153.9,80.5 
		154.2,81.5 155.6,81.5 153.6,75.8 151.9,75.8 149.9,81.5 	"/>
	<polyline points="145.1,81.5 147,75.8 145.6,75.8 144.2,80.4 142.8,75.8 141.4,75.8 143.2,81.5 145.1,81.5 	"/>
	<path d="M137.9,76.6c-0.1-0.2-0.4-0.5-0.8-0.6c-0.4-0.2-0.8-0.3-1.4-0.3c-0.5,0-1.1,0.1-1.5,0.3c-0.3,0.1-0.6,0.4-0.7,0.6
		s-0.2,0.6-0.2,0.9v2.3c0,0.4,0.1,0.7,0.2,0.9c0.1,0.2,0.4,0.5,0.7,0.7c0.3,0.1,0.9,0.2,1.5,0.2c0.6,0,1-0.1,1.4-0.2
		c0.4-0.2,0.7-0.4,0.8-0.7c0.2-0.2,0.2-0.5,0.2-0.9v-2.3C138.1,77.2,138,76.8,137.9,76.6z M136.5,80.3c-0.1,0.1-0.5,0.2-0.9,0.2
		c-0.4,0-0.7-0.1-0.9-0.2c-0.1-0.1-0.2-0.4-0.2-0.6v-2c0-0.3,0.1-0.5,0.2-0.6c0.1-0.1,0.5-0.2,0.9-0.2c0.4,0,0.7,0.1,0.9,0.2
		c0.1,0.1,0.2,0.2,0.2,0.6c0,0.4,0,1.7,0,2C136.7,80,136.7,80.2,136.5,80.3z"/>
	<polyline class="st2" points="104.7,72.9 103.8,72.9 103.8,83.8 104.7,83.8 104.7,72.9 	"/>
	<polyline points="110.4,75.8 109,75.8 109,81.5 110.4,81.5 110.4,75.8 	"/>
	<polyline points="100.1,77 100.1,75.8 95.2,75.8 95.2,77 97,77 97,81.5 98.3,81.5 98.3,77 100.1,77 	"/>
	<polyline points="90.3,75.8 90.3,79.9 88,75.8 86.4,75.8 86.4,81.5 87.7,81.5 87.7,77.5 89.9,81.5 91.6,81.5 91.6,75.8 90.3,75.8 	
		"/>
	<polyline points="125.3,77.5 127.5,81.5 129.2,81.5 129.2,75.8 127.9,75.8 127.9,79.9 125.7,75.8 124.1,75.8 124.1,81.5 
		125.3,81.5 125.3,77.5 	"/>
	<polyline points="118.1,81.5 119.8,81.5 119.8,75.8 118.6,75.8 118.6,79.9 116.3,75.8 114.7,75.8 114.7,81.5 115.9,81.5 
		115.9,77.5 118.1,81.5 	"/>
	<polyline points="62.4,75.8 60.7,75.8 60.7,81.5 62,81.5 62,77.5 64.3,81.5 66,81.5 66,75.8 64.6,75.8 64.6,79.9 62.4,75.8 	"/>
	<polyline points="56.5,75.8 55.1,75.8 55.1,81.5 56.5,81.5 56.5,75.8 	"/>
	<polyline points="82.4,81.5 82.4,80.4 79.8,80.4 79.8,79.1 82.2,79.1 82.2,78.1 79.8,78.1 79.8,77 82.4,77 82.4,75.8 78.4,75.8 
		78.4,81.5 82.4,81.5 	"/>
	<polyline points="73.6,75.8 72.2,80.4 70.7,75.8 69.4,75.8 71.2,81.5 73.1,81.5 74.9,75.8 73.6,75.8 	"/>
</g>
</svg>
